<svg xmlns="http://www.w3.org/2000/svg" width="454.377" height="424.477" viewBox="0 0 454.377 424.477">
  <g id="landing-img" transform="translate(-21.172 -44.759)">
    <g id="freepik--background-complete--inject-11" transform="translate(21.172 44.759)">
      <path id="Caminho_2" data-name="Caminho 2" d="M456.079,61.572c.541-3.937-4.971-7.116-9.115-7.451-1.969-.157-4.016.148-5.906-.5C437,52.2,435.38,46.965,431.433,45.3c-2.953-1.25-6.359-.138-9.223,1.3s-5.7,3.258-8.859,3.465c-2.786.177-5.817-.856-8.248.512-1.821.984-2.766,3.1-4.439,4.331a10.581,10.581,0,0,1-5.807,1.575,16.546,16.546,0,0,0-5.984.984c-1.851.846-3.376,2.8-2.953,4.794Z" transform="translate(-26.9 -44.759)" fill="#f5f5f5"/>
      <path id="Caminho_3" data-name="Caminho 3" d="M453.659,182.522c.531-3.937-4.921-7.116-9.115-7.451-1.969-.157-4.026.148-5.906-.5-4.045-1.417-5.669-6.654-9.617-8.317-2.953-1.25-6.359-.138-9.233,1.3s-5.689,3.258-8.859,3.465c-2.786.177-5.807-.856-8.239.512-1.821.984-2.766,3.1-4.439,4.341a10.66,10.66,0,0,1-5.807,1.565,16.545,16.545,0,0,0-5.984.984c-1.85.847-3.376,2.8-2.953,4.794Z" transform="translate(-26.862 -46.659)" fill="#f5f5f5"/>
      <path id="Caminho_4" data-name="Caminho 4" d="M152.289,174.062c.532-3.937-4.921-7.116-9.115-7.451-1.969-.157-4.026.148-5.906-.5-4.055-1.417-5.67-6.654-9.626-8.317-2.953-1.25-6.359-.138-9.223,1.309s-5.7,3.258-8.859,3.455c-2.786.177-5.807-.846-8.248.512-1.811.984-2.766,3.1-4.439,4.341s-3.77,1.457-5.8,1.575a16.29,16.29,0,0,0-5.984.984c-1.85.846-3.386,2.805-2.953,4.8Z" transform="translate(-22.129 -46.526)" fill="#f5f5f5"/>
      <path id="Caminho_5" data-name="Caminho 5" d="M402.68,116.428c.787-5.709-7.264-10.4-13.327-10.886-2.884-.236-5.906.207-8.613-.748-5.906-2.067-8.3-9.715-14.075-12.156-4.321-1.821-9.3-.207-13.495,1.91s-8.327,4.764-13.012,5.059c-4.075.266-8.494-1.25-12.058.738-2.648,1.486-4.045,4.547-6.486,6.349s-5.522,2.136-8.494,2.3-6.044.187-8.75,1.427-4.921,4.095-4.38,7.018Z" transform="translate(-25.55 -45.499)" fill="#ebebeb"/>
      <path id="Caminho_6" data-name="Caminho 6" d="M110.573,109.229c.689-4.921-6.319-9.055-11.585-9.479-2.51-.2-5.118.187-7.5-.65-5.158-1.791-7.215-8.455-12.245-10.571-3.76-1.585-8.091-.177-11.733,1.654s-7.244,4.144-11.319,4.41c-3.543.226-7.392-1.083-10.493.64-2.313,1.289-3.514,3.937-5.65,5.522s-4.793,1.86-7.382,1.969-5.256.167-7.609,1.24-4.3,3.563-3.809,6.1Z" transform="translate(-21.172 -45.436)" fill="#f5f5f5"/>
      <path id="Caminho_7" data-name="Caminho 7" d="M437.34,375.52l11.654,1.91v18.78l-11.654,2.254Z" transform="translate(-27.709 -49.954)" fill="#f5f5f5"/>
      <rect id="Retângulo_1" data-name="Retângulo 1" width="2.953" height="22.954" rx="0.92" transform="translate(420.862 325.221)" fill="#f5f5f5"/>
      <path id="Caminho_8" data-name="Caminho 8" d="M451.15,381.43h2.2a2.707,2.707,0,0,1,2.707,2.707V387.6a2.707,2.707,0,0,1-2.707,2.707h-2.2V381.43Z" transform="translate(-27.926 -50.047)" fill="#f5f5f5"/>
      <path id="Caminho_9" data-name="Caminho 9" d="M448.665,396.32c-.167,0-.3-4.213-.3-9.41s.128-9.41.3-9.41a77.845,77.845,0,0,1,.285,9.41,77.847,77.847,0,0,1-.285,9.41Z" transform="translate(-27.882 -49.986)" fill="#e0e0e0"/>
      <path id="Caminho_10" data-name="Caminho 10" d="M451.6,396.45c-.167,0-.3-4.213-.3-9.41s.128-9.41.3-9.41a77.845,77.845,0,0,1,.286,9.41A77.846,77.846,0,0,1,451.6,396.45Z" transform="translate(-27.928 -49.988)" fill="#e0e0e0"/>
      <path id="Caminho_11" data-name="Caminho 11" d="M394.86,448.144V352.786a20.906,20.906,0,0,1,20.906-20.916h0a20.906,20.906,0,0,1,20.906,20.916v95.358Z" transform="translate(-27.042 -49.269)" fill="#f5f5f5"/>
      <rect id="Retângulo_2" data-name="Retângulo 2" width="55.406" height="11.556" rx="3.58" transform="translate(361.223 305.791)" fill="#f5f5f5"/>
      <path id="Caminho_12" data-name="Caminho 12" d="M409.54,333.294v-.827a5.984,5.984,0,0,1,5.63-6.329l1.624-.089a6,6,0,0,1,6.24,5.738l.069,1.427Z" transform="translate(-27.272 -49.177)" fill="#f5f5f5"/>
      <path id="Caminho_13" data-name="Caminho 13" d="M415.581,323.69h1.545a1.211,1.211,0,0,1,1.211,1.211v2.136H414.4V324.9a1.211,1.211,0,0,1,1.181-1.211Z" transform="translate(-27.349 -49.14)" fill="#f5f5f5"/>
      <path id="Caminho_14" data-name="Caminho 14" d="M436.674,355.235c0,.167-9.341.3-20.867.3s-20.867-.128-20.867-.3,9.341-.285,20.867-.285S436.674,355.078,436.674,355.235Z" transform="translate(-27.043 -49.631)" fill="#e0e0e0"/>
      <path id="Caminho_15" data-name="Caminho 15" d="M409.914,334.19c0,.089-1.2.591-3.081,1.6a21.241,21.241,0,0,0-6.418,5.177,18.583,18.583,0,0,0-3.435,7.451c-.443,2.087-.344,3.425-.453,3.435a2.884,2.884,0,0,1-.128-.984,12.564,12.564,0,0,1,.187-2.559,17.176,17.176,0,0,1,3.376-7.746,19.431,19.431,0,0,1,6.683-5.177,24.823,24.823,0,0,1,2.362-.984A3.19,3.19,0,0,1,409.914,334.19Z" transform="translate(-27.066 -49.305)" fill="#fafafa"/>
      <path id="Caminho_16" data-name="Caminho 16" d="M423.062,332.974c-.059.207-3.022-.984-6.831-1.043s-6.772,1.2-6.831.984a5.786,5.786,0,0,1,1.89-.827,15.926,15.926,0,0,1,4.921-.748,17.185,17.185,0,0,1,4.921.807A5.905,5.905,0,0,1,423.062,332.974Z" transform="translate(-27.27 -49.26)" fill="#e0e0e0"/>
      <path id="Caminho_17" data-name="Caminho 17" d="M418.748,326.408c-.059.158-.984-.128-2.234-.148a14.765,14.765,0,0,1-2.254,0c-.059-.138.925-.66,2.264-.62S418.827,326.28,418.748,326.408Z" transform="translate(-27.346 -49.171)" fill="#e0e0e0"/>
      <circle id="Elipse_1" data-name="Elipse 1" cx="14.449" cy="14.449" r="14.449" transform="translate(368.666 339.54) rotate(-45)" fill="#e0e0e0"/>
      <circle id="Elipse_2" data-name="Elipse 2" cx="14.449" cy="14.449" r="14.449" transform="translate(373.287 349.984) rotate(-84.33)" fill="#f5f5f5"/>
      <path id="Caminho_18" data-name="Caminho 18" d="M430.693,386.946a27.882,27.882,0,0,0-.561-3.5,14.469,14.469,0,0,0-5.266-7.825A14.191,14.191,0,0,0,404.845,395.3a13.575,13.575,0,0,0,2.953,3.012,13.246,13.246,0,0,0,3.593,1.969,14.2,14.2,0,0,0,13.445-1.969,14.469,14.469,0,0,0,5.266-7.825,28.2,28.2,0,0,0,.561-3.494,5.914,5.914,0,0,1,0,.915,6.136,6.136,0,0,1-.089,1.122,9.136,9.136,0,0,1-.266,1.516,14.528,14.528,0,0,1-11.388,10.827A14.691,14.691,0,0,1,404.3,378.245a13.781,13.781,0,0,1,3.12-3.12,13.525,13.525,0,0,1,3.73-1.969,14.676,14.676,0,0,1,7.727-.61,14.528,14.528,0,0,1,11.388,10.827,9.129,9.129,0,0,1,.266,1.516,6.2,6.2,0,0,1,.089,1.122A6.078,6.078,0,0,1,430.693,386.946Z" transform="translate(-27.145 -49.904)" fill="#e0e0e0"/>
      <path id="Caminho_19" data-name="Caminho 19" d="M422.309,384.032a6.663,6.663,0,1,1-3.888-3.308,6.664,6.664,0,0,1,3.888,3.308Z" transform="translate(-27.275 -50.031)" fill="#e0e0e0"/>
      <path id="Caminho_20" data-name="Caminho 20" d="M420.965,387.107a4.547,4.547,0,1,1-1.332-3.225A4.557,4.557,0,0,1,420.965,387.107Z" transform="translate(-27.309 -50.065)" fill="#f5f5f5"/>
      <path id="Caminho_21" data-name="Caminho 21" d="M420.96,387.1c-.059,0-.059-.413-.256-1.092a4.548,4.548,0,0,0-1.673-2.372,4.3,4.3,0,1,0,0,6.89,4.577,4.577,0,0,0,1.663-2.372c.2-.679.2-1.093.256-1.083a2.333,2.333,0,0,1,0,1.132,4.508,4.508,0,0,1-1.634,2.648,4.793,4.793,0,1,1,0-7.569,4.508,4.508,0,0,1,1.634,2.648A2.392,2.392,0,0,1,420.96,387.1Z" transform="translate(-27.305 -50.06)" fill="#e0e0e0"/>
      <path id="Caminho_22" data-name="Caminho 22" d="M436.667,367.325c0,.157-9.439.285-21.084.285s-21.074-.128-21.074-.285,9.43-.3,21.074-.3S436.667,367.158,436.667,367.325Z" transform="translate(-27.036 -49.821)" fill="#e0e0e0"/>
      <path id="Caminho_23" data-name="Caminho 23" d="M394.424,356.758c0,.089-.561.1-1.368.364a5.394,5.394,0,0,0-2.628,1.86,5.325,5.325,0,0,0-.984,3.061,13.471,13.471,0,0,1,.049,1.417,2.337,2.337,0,0,1-.463-1.4,4.922,4.922,0,0,1,3.937-5.335C393.862,356.542,394.424,356.689,394.424,356.758Z" transform="translate(-26.95 -49.658)" fill="#fafafa"/>
      <path id="Caminho_24" data-name="Caminho 24" d="M409.58,376.07c.049.089-.984.581-2.264,1.772a12.363,12.363,0,0,0-3.681,12.471c.443,1.7.984,2.667.925,2.717a2.156,2.156,0,0,1-.463-.64,9.762,9.762,0,0,1-.856-1.968,11.91,11.91,0,0,1,3.809-12.894,10.277,10.277,0,0,1,1.791-1.181C409.294,376.119,409.56,376,409.58,376.07Z" transform="translate(-27.164 -49.963)" fill="#fafafa"/>
      <path id="Caminho_25" data-name="Caminho 25" d="M437.335,406.648c-.158,0-.3-8.859-.3-19.784s.138-19.794.3-19.794.285,8.859.285,19.794S437.493,406.648,437.335,406.648Z" transform="translate(-27.704 -49.822)" fill="#e0e0e0"/>
      <path id="Caminho_26" data-name="Caminho 26" d="M381.07,461.592v-4.616a3.465,3.465,0,0,1,3.465-3.465h0v-1.486a6.6,6.6,0,0,1,6.6-6.6H438c3.642,0,6.546,4.124,6.546,7.766h1.663c1.919,0,3.475.394,3.475,2.3v6.1Z" transform="translate(-26.825 -51.052)" fill="#e0e0e0"/>
      <path id="Caminho_27" data-name="Caminho 27" d="M446.263,453.305c0,.167-13.839.3-30.917.3s-30.926-.128-30.926-.3,13.839-.285,30.926-.285S446.263,453.148,446.263,453.305Z" transform="translate(-26.878 -51.172)" fill="#f5f5f5"/>
      <path id="Caminho_28" data-name="Caminho 28" d="M394.754,397.944l-11.644-1.91v-18.78L394.754,375Z" transform="translate(-26.857 -49.946)" fill="#f5f5f5"/>
      <rect id="Retângulo_3" data-name="Retângulo 3" width="2.953" height="22.954" rx="0.92" transform="translate(356.656 348.342) rotate(180)" fill="#f5f5f5"/>
      <path id="Caminho_29" data-name="Caminho 29" d="M0,0H2.2A2.707,2.707,0,0,1,4.912,2.707V6.172A2.707,2.707,0,0,1,2.2,8.878H0V0Z" transform="translate(354.304 342.18) rotate(180)" fill="#f5f5f5"/>
      <path id="Caminho_30" data-name="Caminho 30" d="M383.6,377.21c.167,0,.3,4.213.3,9.41s-.128,9.41-.3,9.41a77.827,77.827,0,0,1-.285-9.41,77.832,77.832,0,0,1,.285-9.41Z" transform="translate(-26.86 -49.981)" fill="#e0e0e0"/>
      <path id="Caminho_31" data-name="Caminho 31" d="M380.685,377.08a77.827,77.827,0,0,1,.285,9.41,77.828,77.828,0,0,1-.285,9.41c-.167,0-.3-4.213-.3-9.41S380.518,377.08,380.685,377.08Z" transform="translate(-26.815 -49.979)" fill="#e0e0e0"/>
      <path id="Caminho_32" data-name="Caminho 32" d="M395,418.332c-.167,0-.3-11.191-.3-25s.128-25.011.3-25.011.285,11.191.285,25.011S395.1,418.332,395,418.332Z" transform="translate(-27.039 -49.841)" fill="#e0e0e0"/>
      <path id="Caminho_33" data-name="Caminho 33" d="M273.021,376.52,253.65,460.657l8.189-.01,19.42-83.33Z" transform="translate(-24.824 -49.97)" fill="#e0e0e0"/>
      <path id="Caminho_34" data-name="Caminho 34" d="M309.25,376.52l19.44,84.137h7.786l-18.81-84.137Z" transform="translate(-25.697 -49.97)" fill="#e0e0e0"/>
      <path id="Caminho_35" data-name="Caminho 35" d="M260.04,312.32l11.034,57.926h12.54L271.832,312.32Z" transform="translate(-24.924 -48.962)" fill="#e0e0e0"/>
      <path id="Caminho_36" data-name="Caminho 36" d="M64.548,376.52,48.74,460.657h8.052L73.3,376.52Z" transform="translate(-21.605 -49.97)" fill="#e0e0e0"/>
      <path id="Caminho_37" data-name="Caminho 37" d="M98.57,376.52,116.642,460.2h7.943L107.143,376.52Z" transform="translate(-22.388 -49.97)" fill="#e0e0e0"/>
      <path id="Caminho_38" data-name="Caminho 38" d="M51.51,312.32l11.034,57.926h12.54L63.3,312.32Z" transform="translate(-21.649 -48.962)" fill="#e0e0e0"/>
      <path id="Caminho_39" data-name="Caminho 39" d="M26.29,306.97,28.544,317.5H280.316l-2.933-10.532Z" transform="translate(-21.253 -48.878)" fill="#ebebeb"/>
      <path id="Caminho_40" data-name="Caminho 40" d="M31.18,327.75l2.658,10.532H283.907l-2.274-10.532Z" transform="translate(-21.329 -49.204)" fill="#ebebeb"/>
      <path id="Caminho_41" data-name="Caminho 41" d="M36.23,349.26,38.7,359.792H287.992L285.64,349.26Z" transform="translate(-21.409 -49.542)" fill="#ebebeb"/>
      <rect id="Retângulo_4" data-name="Retângulo 4" width="268.82" height="10.532" transform="translate(33.877 321.284)" fill="#ebebeb"/>
    </g>
    <g id="freepik--Floor--inject-11" transform="translate(21.2 455.279)">
      <path id="Caminho_42" data-name="Caminho 42" d="M475.549,462.086c0,.148-101.717.256-227.165.256S21.2,462.234,21.2,462.086s101.7-.256,227.185-.256S475.549,462,475.549,462.086Z" transform="translate(-21.2 -461.83)" fill="#263238"/>
    </g>
    <g id="freepik--Character--inject-11" transform="translate(173.411 92.914)">
      <path id="Caminho_138" data-name="Caminho 138" d="M245.008,334.305c-.5.049-8.918,28.052-8.918,28.052s-29.243,25.237-33.643,34.844-19.627,39.254-19.627,39.254l17.619,8.859,49.726-59.323s5.5-2.4,7.51-5.611S282.9,339.729,282.9,339.729l-7.874-17.009Z" transform="translate(-175.95 -97.28)" fill="#b78876"/>
      <path id="Caminho_139" data-name="Caminho 139" d="M309.15,336.507s23.712,17.875,26.1,21.32c.433.63,0,2.539,0,2.539s-13.268,8.189-16.93,19.479-19.194,49.677-19.194,49.677,16.369,10.443,16.93,9.311,39.293-56.892,42.679-61.41,8.406-10.827,9.252-16.487-1.122-16.379-10.158-25.976-21.428-23.7-21.428-23.7l-32.747,6.486-1.142,12.943,6.634,5.778" transform="translate(-177.777 -97.1)" fill="#b78876"/>
      <path id="Caminho_140" data-name="Caminho 140" d="M252.174,283.231s2.126,15.572,7.52,22.54,19.528,19.755,26.5,21.773,20.542,11.438,20.542,11.438l2.579-1.969-4.036-11.487,13.249,5.168,22.639-19.578s-18.879-17.924-23.7-23.446a174.7,174.7,0,0,0-12.589-12.51l-49.215,5.463-3.868,3.593" transform="translate(-177.033 -96.533)" fill="#263238"/>
      <path id="Caminho_141" data-name="Caminho 141" d="M252.282,287.87s.876,15.217,3.041,19.056h0L243,334.023l33.781-3.012s7.2,12.55,7.363,12.884S296.4,333,296.4,333l-7.737-32.59Z" transform="translate(-176.895 -96.733)" fill="#263238"/>
      <path id="Caminho_142" data-name="Caminho 142" d="M306.75,339.231a6.581,6.581,0,0,1-.669-.364l-1.9-1.112-6.89-4.242-4.734-2.953c-1.713-1.043-3.484-2.244-5.463-3.307-.984-.541-1.969-1.073-3.071-1.565s-2.185-.866-3.347-1.329a50.558,50.558,0,0,1-6.89-3.356,46.106,46.106,0,0,1-11.31-9.331,41.628,41.628,0,0,1-6.555-10.04,38.09,38.09,0,0,1-2.618-7.668c-.187-.935-.335-1.663-.394-2.165a3.937,3.937,0,0,1-.079-.758,4.545,4.545,0,0,1,.187.748c.089.492.256,1.211.482,2.136a40.435,40.435,0,0,0,2.746,7.55,42.327,42.327,0,0,0,6.585,9.843,46.263,46.263,0,0,0,11.28,9.213,50.629,50.629,0,0,0,6.772,3.327c1.132.453,2.284.846,3.366,1.358s2.106,1.043,3.091,1.595c1.969,1.093,3.76,2.3,5.463,3.356l4.7,3,6.792,4.38,1.831,1.211A3.08,3.08,0,0,1,306.75,339.231Z" transform="translate(-177.049 -96.782)" fill="#455a64"/>
      <path id="Caminho_143" data-name="Caminho 143" d="M320.479,328.822a4.437,4.437,0,0,1-.62-.315l-1.713-.984c-1.486-.856-3.612-2.136-6.221-3.76-5.207-3.238-12.284-7.874-19.843-13.436s-14.144-10.827-18.81-14.853c-2.333-1.969-4.193-3.622-5.463-4.784l-1.447-1.339c-.335-.305-.5-.472-.482-.492a4.072,4.072,0,0,1,.551.413l1.516,1.27,5.561,4.656c4.715,3.937,11.339,9.193,18.879,14.715s14.587,10.227,19.735,13.544l6.122,3.937,1.664,1.063A2.953,2.953,0,0,1,320.479,328.822Z" transform="translate(-177.254 -96.748)" fill="#fff"/>
      <path id="Caminho_144" data-name="Caminho 144" d="M323.4,326.576a2.8,2.8,0,0,1-.61-.315l-1.673-.984c-1.447-.866-3.524-2.156-6.073-3.79-5.089-3.248-12.018-7.924-19.43-13.406s-13.9-10.758-18.495-14.686c-2.3-1.969-4.144-3.573-5.384-4.715l-1.437-1.309a3.129,3.129,0,0,1-.482-.492,2.954,2.954,0,0,1,.551.413l1.5,1.24,5.492,4.587c4.646,3.849,11.162,9.065,18.564,14.548s14.282,10.187,19.322,13.524l5.984,3.937,1.624,1.073A3.938,3.938,0,0,1,323.4,326.576Z" transform="translate(-177.316 -96.717)" fill="#fff"/>
      <path id="Caminho_145" data-name="Caminho 145" d="M344.029,363.95a21.479,21.479,0,0,0-3.858-2.136,21.915,21.915,0,0,0-4.331-.807,8.376,8.376,0,0,1,8.189,2.953Z" transform="translate(-178.353 -97.879)" fill="#995037"/>
      <path id="Caminho_146" data-name="Caminho 146" d="M252.074,385.77c-.069.118-.778-.2-1.565-.709s-1.378-.984-1.3-1.132.778.2,1.575.7S252.153,385.652,252.074,385.77Z" transform="translate(-176.992 -98.241)" fill="#995037"/>
      <path id="Caminho_147" data-name="Caminho 147" d="M329.018,229.56l19.43,6.2-5.069,13.219s-22.127-.7-25.857-1.506-3.662-6.89-3.662-6.89Z" transform="translate(-178.008 -95.817)" fill="#b78876"/>
      <path id="Caminho_148" data-name="Caminho 148" d="M347,236.768l6.3-7.048,7.166.089s5.2,2.087,6.221,2.067a2.087,2.087,0,0,1-1.319,1.732s2.54,0,3.1.856-.4,2.559-1.211,3.544a8.347,8.347,0,0,1,.226,2.49,4.282,4.282,0,0,1-.886,2.343l-1.447.778a1.969,1.969,0,0,1,.5,2.126,5.738,5.738,0,0,1-2.087,2.156s1.319.541.906,1.634a2.867,2.867,0,0,1-1.614,1.969c-.837.364-8.593,1.388-10.266.984s-8.691-3.435-8.691-3.435Z" transform="translate(-178.48 -95.819)" fill="#b78876"/>
      <path id="Caminho_149" data-name="Caminho 149" d="M367.556,238.4c0,.079-1.083-.138-2.825-.305-.866-.079-1.9-.148-3.051-.138h-1.811a2.874,2.874,0,0,1-2.028-.492,1.5,1.5,0,0,1-.551-.984,1.772,1.772,0,0,1,.276-1.063,2.53,2.53,0,0,1,1.614-1.112,9.657,9.657,0,0,1,1.663-.217l1.437-.108a15.631,15.631,0,0,1,2.845-.1,15.919,15.919,0,0,1-2.815.453c-.856.138-1.969.167-3.012.433a2.028,2.028,0,0,0-1.3.906,1.073,1.073,0,0,0,.167,1.447,2.431,2.431,0,0,0,1.683.384h1.831a22.642,22.642,0,0,1,3.1.256,9.844,9.844,0,0,1,2.776.64Z" transform="translate(-178.69 -95.884)" fill="#995037"/>
      <path id="Caminho_150" data-name="Caminho 150" d="M365.389,243.163c0,.069-.817-.1-2.126-.207a21.044,21.044,0,0,1-5.118-.817,11.143,11.143,0,0,1-1.437-.472,1.348,1.348,0,0,1-.62-.581,2.163,2.163,0,0,1-.158-.738,1.536,1.536,0,0,1,.069-.719,1.9,1.9,0,0,1,.3-.581,2.953,2.953,0,0,1,.807-.817,2.8,2.8,0,0,1,1.545-.492c.384,0,.591.079.581.108a3.937,3.937,0,0,0-1.91.679,2.6,2.6,0,0,0-.669.748,2.04,2.04,0,0,0-.226.492,1.574,1.574,0,0,0,0,.541,2.128,2.128,0,0,0,.138.561.768.768,0,0,0,.394.345,13.017,13.017,0,0,0,1.358.433,28.082,28.082,0,0,0,5.03.984,5.542,5.542,0,0,1,2.047.531Z" transform="translate(-178.669 -95.945)" fill="#995037"/>
      <path id="Caminho_151" data-name="Caminho 151" d="M363.858,247.912a17.584,17.584,0,0,1-2.953-.709l-3.179-.906a7.481,7.481,0,0,1-1.89-.709,2.1,2.1,0,0,1-.748-.9,1.447,1.447,0,0,1,.069-1.24,2.342,2.342,0,0,1,1.969-1.083c.709,0,1.349,0,1.969.059a23.619,23.619,0,0,1,3.307.413,13.428,13.428,0,0,1,2.156.64c.492.2.748.344.728.374a28.825,28.825,0,0,0-2.953-.65,27.726,27.726,0,0,0-3.258-.315c-.62,0-1.289-.059-1.919,0a1.85,1.85,0,0,0-1.565.827,1.132,1.132,0,0,0,.512,1.467,6.892,6.892,0,0,0,1.742.679l3.15.984A17.39,17.39,0,0,1,363.858,247.912Z" transform="translate(-178.654 -96.018)" fill="#995037"/>
      <path id="Caminho_152" data-name="Caminho 152" d="M361.755,250.8a7.707,7.707,0,0,1-2.589-.138A17.846,17.846,0,0,1,356.41,250a2.845,2.845,0,0,1-1.506-.935,1.95,1.95,0,0,1,1.437-3.071,4.823,4.823,0,0,1,1.722.2,25.946,25.946,0,0,1,2.687.846,9.253,9.253,0,0,1,2.352,1.1,23.232,23.232,0,0,1-2.471-.768c-.758-.226-1.664-.492-2.677-.728a4.922,4.922,0,0,0-1.555-.157,1.526,1.526,0,0,0-1.2.837,1.4,1.4,0,0,0,.118,1.427,2.411,2.411,0,0,0,1.25.778,22.41,22.41,0,0,0,2.667.758C360.781,250.646,361.765,250.724,361.755,250.8Z" transform="translate(-178.647 -96.075)" fill="#995037"/>
      <path id="Caminho_153" data-name="Caminho 153" d="M365.729,233.668c.049.177-2.195.738-4.99.571a6.052,6.052,0,0,1-.984-.1c-.157,0-.344-.079-.472-.089h-.167a.236.236,0,0,0-.118,0,9.065,9.065,0,0,1-1.3.9,2.766,2.766,0,0,1-1.417.463,12.769,12.769,0,0,1,1.23-.778,11.34,11.34,0,0,0,1.24-.984.917.917,0,0,1,.315-.118h.3l.463.069c.315.049.65.069.984.089,1.358.069,2.608,0,3.494,0A7.872,7.872,0,0,1,365.729,233.668Z" transform="translate(-178.674 -95.879)" fill="#995037"/>
      <path id="Caminho_154" data-name="Caminho 154" d="M355.347,240.087c-.069,0,.118-.374.246-.984a21.8,21.8,0,0,0,.315-2.333,5.128,5.128,0,0,0-.305-2.244c-.217-.551-.472-.837-.413-.886s.4.157.738.719a4.3,4.3,0,0,1,.492,2.441,9.365,9.365,0,0,1-.482,2.411C355.711,239.9,355.4,240.136,355.347,240.087Z" transform="translate(-178.657 -95.881)" fill="#995037"/>
      <path id="Caminho_155" data-name="Caminho 155" d="M344.1,234.32l-3.278,14.627,2.992.108,4.262-13.475Z" transform="translate(-178.431 -95.891)" fill="#263238"/>
      <rect id="Retângulo_6" data-name="Retângulo 6" width="6.349" height="1.988" transform="translate(164.336 135.866) rotate(21.93)" fill="#263238"/>
      <path id="Caminho_156" data-name="Caminho 156" d="M324.652,104.556a5.02,5.02,0,0,1-2.136-8.426,10.227,10.227,0,0,1,4.1-2.057,4.36,4.36,0,0,1,3.061-.207,3.376,3.376,0,0,1,1.624,3.081,33.062,33.062,0,0,0-.138,3.691c.384-.384,1.112-.059,1.25.463a1.457,1.457,0,0,1-.571,1.427,11.469,11.469,0,0,1-1.378.846,2.037,2.037,0,0,0-.984,1.221" transform="translate(-178.12 -93.682)" fill="#263238"/>
      <path id="Caminho_157" data-name="Caminho 157" d="M326.764,106.31a3.937,3.937,0,0,1-1.565.433,1.329,1.329,0,0,1-1.3-.807,1.309,1.309,0,0,1,.443-1.329,3.494,3.494,0,0,1,1.329-.65,20.533,20.533,0,0,1,3.081-.7,2.844,2.844,0,0,1,1.289,0,1.034,1.034,0,0,1,.758.984c0,.532-.561.876-1.053,1.1a14.409,14.409,0,0,1-3.868,1.122" transform="translate(-178.165 -93.832)" fill="#455a64"/>
      <path id="Caminho_158" data-name="Caminho 158" d="M315.469,142.819a77.568,77.568,0,0,1-2.471-13.1,27.028,27.028,0,0,1,1.969-13.071c.285-.62,2.589-4.715,3.248-4.6.472.079-1.034,3.937-.827,4.38a22.806,22.806,0,0,1,1.624,13.5,60.12,60.12,0,0,1-3.593,12.9" transform="translate(-177.992 -93.971)" fill="#263238"/>
      <path id="Caminho_159" data-name="Caminho 159" d="M324.737,183.763c-6.89-.63-11.9-9.636-11.418-16.526l2.953-41.458c.433-11.172,7.284-20.227,18.436-19.489l.984.128a19.971,19.971,0,0,1,17.471,20.67c-.423,9.676-.984,20.355-1.723,25.483-1.467,10.62-12.313,10.945-12.313,10.945s-.236,2.471-.492,5.61a12.687,12.687,0,0,1-13.78,11.615Z" transform="translate(-177.999 -93.88)" fill="#b78876"/>
      <path id="Caminho_160" data-name="Caminho 160" d="M339.337,164.337A25.877,25.877,0,0,1,326,158.51s2.412,8.16,13.15,8.534Z" transform="translate(-178.199 -94.701)" fill="#995037"/>
      <path id="Caminho_161" data-name="Caminho 161" d="M347.691,134.255a1.526,1.526,0,0,1-1.654,1.348,1.467,1.467,0,0,1-1.4-1.565,1.526,1.526,0,0,1,1.654-1.348,1.467,1.467,0,0,1,1.4,1.565Z" transform="translate(-178.491 -94.295)" fill="#263238"/>
      <path id="Caminho_162" data-name="Caminho 162" d="M350.844,131.579c-.207.177-1.25-.817-2.894-.984s-2.953.463-3.081.246.157-.433.728-.748a4.144,4.144,0,0,1,2.5-.443,4,4,0,0,1,2.274,1.053C350.824,131.126,350.952,131.51,350.844,131.579Z" transform="translate(-178.495 -94.247)" fill="#263238"/>
      <path id="Caminho_163" data-name="Caminho 163" d="M331.191,132.845a1.536,1.536,0,0,1-1.664,1.348,1.457,1.457,0,0,1-1.388-1.565,1.526,1.526,0,0,1,1.654-1.348,1.467,1.467,0,0,1,1.4,1.565Z" transform="translate(-178.232 -94.273)" fill="#263238"/>
      <path id="Caminho_164" data-name="Caminho 164" d="M334.494,130.219c-.207.177-1.26-.817-2.894-.984s-2.953.472-3.081.246.158-.433.728-.748a4.222,4.222,0,0,1,2.5-.443,4.1,4.1,0,0,1,2.274,1.063C334.474,129.766,334.6,130.14,334.494,130.219Z" transform="translate(-178.238 -94.225)" fill="#263238"/>
      <path id="Caminho_165" data-name="Caminho 165" d="M339,143.541a10.415,10.415,0,0,1,2.717-.148c.423,0,.827,0,.984-.305a2.087,2.087,0,0,0-.128-1.27l-.837-3.337c-1.142-4.734-1.919-8.613-1.732-8.652s1.28,3.76,2.431,8.494c.276,1.171.531,2.284.778,3.347a2.412,2.412,0,0,1,0,1.663,1.034,1.034,0,0,1-.758.532,3.552,3.552,0,0,1-.718,0A11.043,11.043,0,0,1,339,143.541Z" transform="translate(-178.403 -94.25)" fill="#263238"/>
      <path id="Caminho_166" data-name="Caminho 166" d="M333.914,144.29c.266,0,.049,1.8,1.408,3.248s3.278,1.486,3.258,1.742c0,.108-.463.285-1.26.207a4.459,4.459,0,0,1-2.736-1.348,3.937,3.937,0,0,1-1.063-2.707C333.54,144.684,333.8,144.27,333.914,144.29Z" transform="translate(-178.317 -94.477)" fill="#263238"/>
      <path id="Caminho_167" data-name="Caminho 167" d="M335.22,123.473c-.217.423-1.821,0-3.77,0s-3.563.325-3.76-.108c-.089-.207.226-.591.906-.984a6.546,6.546,0,0,1,5.748.089C335.013,122.872,335.318,123.266,335.22,123.473Z" transform="translate(-178.225 -94.123)" fill="#263238"/>
      <path id="Caminho_168" data-name="Caminho 168" d="M350.912,125.967c-.335.335-1.417-.2-2.766-.384s-2.53-.059-2.746-.482c-.089-.207.138-.551.679-.837a3.848,3.848,0,0,1,2.323-.335,3.937,3.937,0,0,1,2.116.984C350.912,125.406,351.01,125.809,350.912,125.967Z" transform="translate(-178.503 -94.157)" fill="#263238"/>
      <path id="Caminho_169" data-name="Caminho 169" d="M316.046,134.159c-.167-.1-7.038-3.081-7.717,4.223s6.792,6.477,6.821,6.27S316.046,134.159,316.046,134.159Z" transform="translate(-177.92 -94.307)" fill="#b78876"/>
      <path id="Caminho_170" data-name="Caminho 170" d="M313.211,141.716a2.379,2.379,0,0,1-.364.158,1.3,1.3,0,0,1-.984-.069,3.179,3.179,0,0,1-1.2-2.953,4.293,4.293,0,0,1,.532-1.791,1.457,1.457,0,0,1,1.043-.886.659.659,0,0,1,.719.423c.079.207,0,.354.059.364s.167-.108.138-.413a.837.837,0,0,0-.246-.482.984.984,0,0,0-.689-.256,1.8,1.8,0,0,0-1.427.984,4.242,4.242,0,0,0-.63,1.969c-.1,1.467.532,2.953,1.555,3.317A1.368,1.368,0,0,0,312.9,142C313.182,141.9,313.231,141.726,313.211,141.716Z" transform="translate(-177.95 -94.344)" fill="#995037"/>
      <path id="Caminho_171" data-name="Caminho 171" d="M349.421,114.564c1.24-.561-1.969-4.685-4.784-6.25-4.223-2.352-10.827-4.144-14.971-3.337-4.99.984-9.252,3.061-12.067,7.294a28.81,28.81,0,0,0-4.419,14.381,8.711,8.711,0,0,0,.659,4.547c.876,1.7,2.756,2.884,2.48,5.108a3.061,3.061,0,0,0,.571,2.293c1.221,1.535,2.953.335,3.829-.984,1.85-2.727,2.313-6.122,2.726-9.39a21.655,21.655,0,0,0,.128-6.988c-.256-1.25-.738-2.451-.925-3.711a4.39,4.39,0,0,1,.827-3.6,4.456,4.456,0,0,1,.64-.551,7.658,7.658,0,0,1,7.687-.807c3.937,1.8,10.827,4.567,12.8,3.327a11.25,11.25,0,0,0,3.553-3.051Z" transform="translate(-177.996 -93.857)" fill="#263238"/>
      <path id="Caminho_172" data-name="Caminho 172" d="M341.22,106.36a7.69,7.69,0,0,1,1.171,1.152,11.27,11.27,0,0,1,2.077,3.416,6.644,6.644,0,0,1,.216,4.006,2.788,2.788,0,0,1-.8,1.457c-.039-.039.256-.581.443-1.545a7.235,7.235,0,0,0-.345-3.74,14.99,14.99,0,0,0-1.88-3.376A5.907,5.907,0,0,1,341.22,106.36Z" transform="translate(-178.438 -93.882)" fill="#455a64"/>
      <path id="Caminho_173" data-name="Caminho 173" d="M346.038,110.34c.059,0,.256.345.374.984a5.739,5.739,0,0,1-.2,2.539,5.562,5.562,0,0,1-1.309,2.195c-.463.463-.827.64-.866.591a11.873,11.873,0,0,0,1.683-2.953A11.714,11.714,0,0,0,346.038,110.34Z" transform="translate(-178.482 -93.944)" fill="#455a64"/>
      <path id="Caminho_174" data-name="Caminho 174" d="M323.468,103.07a1.851,1.851,0,0,1-.541-.472,3.937,3.937,0,0,1-.158-4.616,4.114,4.114,0,0,1,3.081-1.772,1.24,1.24,0,0,1,.984.364,1.388,1.388,0,0,1,.246.984,14.59,14.59,0,0,1-.226,1.673,13.785,13.785,0,0,1-.817,2.736,7.166,7.166,0,0,1-1.309,2.264c-.069-.049.433-.906.984-2.4a16.32,16.32,0,0,0,.689-2.687,16.033,16.033,0,0,0,.187-1.624.984.984,0,0,0-.128-.65.788.788,0,0,0-.63-.187,3.7,3.7,0,0,0-2.717,1.535,3.524,3.524,0,0,0-.65,2.51,5.226,5.226,0,0,0,1,2.343Z" transform="translate(-178.137 -93.722)" fill="#455a64"/>
      <path id="Caminho_175" data-name="Caminho 175" d="M291.911,165.5c.9-.374,9.843-3.76,13.091-4.577s8.051-1.437,8.051-1.437,12.323,7.678,14.764,9.046,9.843,1.791,9.843,1.791,0,13.514-.787,18.436a329.124,329.124,0,0,1-9.016,39.076c-5.463,18.318-9.016,23.781-9.016,23.781s.758,7.874-1.535,12.8-5.03,9.843-5.03,9.843l-3,2.185s-9.843-4.1-18.859,0-31.173,12.619-36.094,11.506-2.736-6.014-1.644-10.66,10.66-20.769,10.66-20.769l1.093-5.738,2.106-2.106,8.032-49.1S289.6,166.449,291.911,165.5Z" transform="translate(-177.024 -94.716)" fill="#f5f5f5"/>
      <path id="Caminho_176" data-name="Caminho 176" d="M285.94,196.968s3.937,13.967,13.426,15.5c8.317,1.348,12.53-.984,14.538-6.309s3.681-28.9,3.681-28.9.226-8.691-2.441-10.453S285.94,196.968,285.94,196.968Z" transform="translate(-177.569 -94.83)" fill="#b78876"/>
      <path id="Caminho_177" data-name="Caminho 177" d="M271,254.225s.984,6.546,2.49,8.071c0,0,11.418,13.16,11.969,13.711s2.411,1.516,3.376.984a2.953,2.953,0,0,0,1.1-2.067s2.953,1.969,4.272,1.24a1.713,1.713,0,0,0,.9-1.969s2.274,1.171,3.721-.207a4.627,4.627,0,0,0,1.161-3.583s1.969,1.516,3.1.276a7.184,7.184,0,0,0,1.447-3.5h0l-1.654-2.953s-4.675-6.477-6.122-8.268-4.922-3.238-7.441-4.065S280.9,244.5,280.9,244.5Z" transform="translate(-177.335 -96.051)" fill="#b78876"/>
      <path id="Caminho_178" data-name="Caminho 178" d="M310.19,164.357a21.654,21.654,0,0,0-16.27.246c-8.229,3.376-22.156,9.095-24.155,9.843-2.864,1.1-33.289,11.024-37.039,23.367,0,0-1.91,3.8,0,6.831,2.746,4.37,10.827,23.377,23.623,34.175l14.036,14.125,10.05-9.508s-11.939-21.586-15.463-29.962-5.394-10.345-5.394-10.345,12.353-2.874,20.286-4.853,17.855-5.069,17.855-5.069,13.888-5.069,16.536-9.046,4.41-13.445,0-17.412a13.78,13.78,0,0,0-4.065-2.392Z" transform="translate(-176.72 -94.769)" fill="#b78876"/>
      <path id="Caminho_179" data-name="Caminho 179" d="M251.24,182.471s10.325,14.518,11.27,17.717l.935,3.228a1.732,1.732,0,0,0,2.116.7c1.289-.581,8.219-3.051,8.219-3.051s1.5-5.02-1.772-11.142A126.116,126.116,0,0,0,263.7,177a12.973,12.973,0,0,0-12.461,5.473Z" transform="translate(-177.024 -94.989)" fill="#263238"/>
      <path id="Caminho_180" data-name="Caminho 180" d="M248.93,202.112a14.971,14.971,0,0,1,11.556,1.614,41.089,41.089,0,0,0-5.679-1.476,43.6,43.6,0,0,0-5.876-.138Z" transform="translate(-176.988 -95.378)" fill="#995037"/>
      <path id="Caminho_181" data-name="Caminho 181" d="M301.17,196.317a10.061,10.061,0,0,0-2.254-.856,8.525,8.525,0,0,0-2.6-.089,26.956,26.956,0,0,0-3.179.571c-2.274.512-4.331.935-5.827,1.221a11.509,11.509,0,0,1-2.441.354,12.175,12.175,0,0,1,2.372-.709c1.467-.374,3.514-.856,5.778-1.358a21.9,21.9,0,0,1,3.258-.551,8.407,8.407,0,0,1,2.717.207A3.809,3.809,0,0,1,301.17,196.317Z" transform="translate(-177.553 -95.272)" fill="#995037"/>
      <path id="Caminho_182" data-name="Caminho 182" d="M311.239,168.13a9.163,9.163,0,0,1,1.161,2.116,11.6,11.6,0,0,1,1.211,5.719,11.449,11.449,0,0,1-.817,3.15,13.537,13.537,0,0,1-1.171,2.362c-.817,1.289-1.663,1.791-1.693,1.732a15.945,15.945,0,0,0,1.388-1.919,16.342,16.342,0,0,0,1.034-2.343,11.92,11.92,0,0,0,.748-3.022,12.657,12.657,0,0,0-.984-5.542,14.818,14.818,0,0,1-.876-2.254Z" transform="translate(-177.946 -94.852)" fill="#995037"/>
      <path id="Caminho_183" data-name="Caminho 183" d="M245.5,188.782l6.821,10.7a1.28,1.28,0,0,0,1.624.463L278.047,188.2a1.27,1.27,0,0,0,.522-1.821l-6.831-10.7a1.25,1.25,0,0,0-1.614-.453l-24.135,11.743a1.27,1.27,0,0,0-.492,1.811Z" transform="translate(-176.931 -94.961)" fill="#263238"/>
      <path id="Caminho_184" data-name="Caminho 184" d="M253.969,197.556l-5.709-9.036,21.92-11.27,5.975,9.37Z" transform="translate(-176.978 -94.995)" fill="#455a64"/>
      <path id="Caminho_185" data-name="Caminho 185" d="M268.352,180a14.962,14.962,0,0,1-1.693,2.116c-1.191,1.408-2.618,3.1-4.213,4.971l-4.124,5.04a15.906,15.906,0,0,1-1.782,2.047,13.882,13.882,0,0,1,1.486-2.274c.984-1.348,2.392-3.179,4.026-5.138s3.189-3.681,4.341-4.921A12.862,12.862,0,0,1,268.352,180Z" transform="translate(-177.108 -95.038)" fill="#fff"/>
      <path id="Caminho_186" data-name="Caminho 186" d="M261.2,184.19c.118.079-.374.984-1.093,1.969s-1.4,1.762-1.516,1.673.374-.984,1.093-1.969S261.09,184.1,261.2,184.19Z" transform="translate(-177.139 -95.104)" fill="#fff"/>
      <path id="Caminho_187" data-name="Caminho 187" d="M320.7,436.637l-.561,1.388s19.528,19.105,17.934,23.623l-46.409-19.5,8.8-14.44C306.021,433.832,311.4,436.49,320.7,436.637Z" transform="translate(-177.659 -98.929)" fill="#263238"/>
      <path id="Caminho_188" data-name="Caminho 188" d="M291.66,442.355l2.116-3.465,43.5,19.794s1.693,1.772.846,3.13Z" transform="translate(-177.659 -99.105)" fill="#e0e0e0"/>
      <path id="Caminho_189" data-name="Caminho 189" d="M320.615,438.377c-.108.217-1.28-.158-2.707.108s-2.412.984-2.579.787.719-1.348,2.441-1.634S320.753,438.19,320.615,438.377Z" transform="translate(-178.031 -99.084)" fill="#e0e0e0"/>
      <path id="Caminho_190" data-name="Caminho 190" d="M324.709,442.5c0,.246-1.181.217-2.352.846s-1.821,1.555-2.038,1.457.167-1.447,1.644-2.215S324.8,442.288,324.709,442.5Z" transform="translate(-178.108 -99.156)" fill="#e0e0e0"/>
      <path id="Caminho_191" data-name="Caminho 191" d="M325.109,449.558c-.226,0-.069-1.3,1.034-2.3s2.372-1.043,2.392-.817-.925.62-1.811,1.457S325.335,449.627,325.109,449.558Z" transform="translate(-178.183 -99.221)" fill="#e0e0e0"/>
      <path id="Caminho_192" data-name="Caminho 192" d="M320.957,438.271a1.261,1.261,0,0,0,.157-.3,5.9,5.9,0,0,0,.315-.9,7.265,7.265,0,0,0,.049-3.5,7.355,7.355,0,0,0-.354-1.122,3.936,3.936,0,0,0-.65-1.142,1.682,1.682,0,0,0-.581-.443,1.043,1.043,0,0,0-.807,0,1.535,1.535,0,0,0-.807,1.329,7.687,7.687,0,0,0,.492,3.091,5.463,5.463,0,0,0,1.969,2.727,3.121,3.121,0,0,0,1.693.482,7.37,7.37,0,0,0,1.644-.187,10.541,10.541,0,0,0,2.953-.984,1.693,1.693,0,0,0,.846-1.289,1.122,1.122,0,0,0-.217-.768,1.25,1.25,0,0,0-.64-.423,2.086,2.086,0,0,0-1.329.089,11.206,11.206,0,0,0-1.083.453,11.98,11.98,0,0,0-2.953,1.969,8.862,8.862,0,0,0-.679.669c-.138.167-.207.256-.2.266s.345-.3.984-.807a13.681,13.681,0,0,1,2.953-1.791,3.632,3.632,0,0,1,2.175-.482.768.768,0,0,1,.571.817,1.3,1.3,0,0,1-.669.984,10.444,10.444,0,0,1-2.805.935,3.938,3.938,0,0,1-3.012-.236,5.118,5.118,0,0,1-1.791-2.51,7.343,7.343,0,0,1-.482-2.884,1.142,1.142,0,0,1,.541-.984.866.866,0,0,1,.984.364,3.405,3.405,0,0,1,.6.984,6.889,6.889,0,0,1,.374,1.063,7.707,7.707,0,0,1,.089,3.4A6.522,6.522,0,0,1,320.957,438.271Z" transform="translate(-178.077 -98.977)" fill="#e0e0e0"/>
      <path id="Caminho_193" data-name="Caminho 193" d="M302.53,435.92c-.1.118,1.7,1.663,3.642,3.8.492.532.886,1.073,1.309,1.575a2.952,2.952,0,0,0,1.427.984,1.644,1.644,0,0,0,1.191-.089c.256-.148.335-.3.315-.305a1.8,1.8,0,0,1-1.408.089,2.786,2.786,0,0,1-1.211-.984c-.374-.482-.8-1.063-1.289-1.6A24.965,24.965,0,0,0,303.8,436.8,5.524,5.524,0,0,0,302.53,435.92Z" transform="translate(-177.83 -99.058)" fill="#e0e0e0"/>
      <path id="Caminho_194" data-name="Caminho 194" d="M205.339,446.663l-.9,1.2s14.046,23.426,11.359,27.422L175.84,444.664l10.739-12.884C190.408,439.083,196.392,444.162,205.339,446.663Z" transform="translate(-175.84 -98.993)" fill="#263238"/>
      <path id="Caminho_195" data-name="Caminho 195" d="M175.84,444.82l2.589-3.1,37.344,30.513s1.191,2.136,0,3.238Z" transform="translate(-175.84 -99.149)" fill="#e0e0e0"/>
      <path id="Caminho_196" data-name="Caminho 196" d="M204.915,448.317c-.148.187-1.191-.472-2.638-.581s-2.579.325-2.7.108,1.033-1.122,2.776-.984S205.052,448.169,204.915,448.317Z" transform="translate(-176.213 -99.23)" fill="#e0e0e0"/>
      <path id="Caminho_197" data-name="Caminho 197" d="M207.782,453.349c-.1.226-1.2-.089-2.49.226s-2.156,1.043-2.343.886.532-1.358,2.146-1.723S207.92,453.162,207.782,453.349Z" transform="translate(-176.265 -99.321)" fill="#e0e0e0"/>
      <path id="Caminho_198" data-name="Caminho 198" d="M206.369,460.272c-.207-.089.276-1.28,1.595-1.969s2.559-.414,2.51-.187-1.043.364-2.116.984S206.586,460.4,206.369,460.272Z" transform="translate(-176.319 -99.403)" fill="#e0e0e0"/>
      <path id="Caminho_199" data-name="Caminho 199" d="M205.248,448.3a2.012,2.012,0,0,0,.236-.236,5.769,5.769,0,0,0,.531-.8,7.372,7.372,0,0,0,.935-3.376,9.63,9.63,0,0,0-.059-1.171,3.828,3.828,0,0,0-.344-1.26,1.555,1.555,0,0,0-.443-.581,1.044,1.044,0,0,0-.778-.236,1.5,1.5,0,0,0-1.112,1.083,7.638,7.638,0,0,0-.315,3.11,5.472,5.472,0,0,0,1.2,3.14,3.278,3.278,0,0,0,1.516.9,7.332,7.332,0,0,0,1.634.226,10.538,10.538,0,0,0,3.11-.236,1.7,1.7,0,0,0,1.142-1.043,1.112,1.112,0,0,0,0-.8,1.241,1.241,0,0,0-.5-.571,2.146,2.146,0,0,0-1.319-.246,10.3,10.3,0,0,0-1.161.167,11.807,11.807,0,0,0-3.307,1.142,8.932,8.932,0,0,0-.827.472c-.177.128-.266.2-.256.207a12.354,12.354,0,0,0,1.161-.522,13.064,13.064,0,0,1,3.288-.984,3.573,3.573,0,0,1,2.224.089.758.758,0,0,1,.344.925,1.309,1.309,0,0,1-.9.778,10.661,10.661,0,0,1-2.953.2,4,4,0,0,1-2.854-.984,5.109,5.109,0,0,1-1.093-2.884,7.294,7.294,0,0,1,.266-2.953c.148-.413.423-.8.778-.837a.886.886,0,0,1,.846.591,3.721,3.721,0,0,1,.325,1.142,7.345,7.345,0,0,1,.079,1.122,7.481,7.481,0,0,1-.768,3.3C205.5,447.884,205.218,448.278,205.248,448.3Z" transform="translate(-176.28 -99.132)" fill="#e0e0e0"/>
      <path id="Caminho_200" data-name="Caminho 200" d="M188,441.35c-.138.089,1.221,2.037,2.559,4.6.335.64.581,1.27.866,1.85a2.953,2.953,0,0,0,1.122,1.348,1.6,1.6,0,0,0,1.171.207c.285-.069.394-.2.384-.217a1.772,1.772,0,0,1-1.388-.256,3,3,0,0,1-.925-1.26c-.236-.561-.492-1.23-.837-1.88a23.751,23.751,0,0,0-1.969-3.189A5.515,5.515,0,0,0,188,441.35Z" transform="translate(-176.031 -99.143)" fill="#e0e0e0"/>
    </g>
  </g>
</svg>
