<svg xmlns="http://www.w3.org/2000/svg" width="266" height="61" viewBox="0 0 266 61">
  <g id="logo" transform="translate(-85 -58)">
    <text id="IMC_Calc" data-name="IMC Calc" transform="translate(134 106)" fill="#03c4a1" font-size="50" font-family="Montserrat-Bold, Montserrat" font-weight="700"><tspan x="0" y="0">IMC</tspan><tspan y="0" xml:space="preserve" font-family="Montserrat-Regular, Montserrat" font-weight="400"> Calc</tspan></text>
    <g id="weight" transform="translate(85 68)">
      <g id="Grupo_1" data-name="Grupo 1">
        <path id="Caminho_202" data-name="Caminho 202" d="M37.068,0H3.707A3.71,3.71,0,0,0,0,3.707V37.068a3.711,3.711,0,0,0,3.707,3.707H37.068a3.711,3.711,0,0,0,3.707-3.707V3.707A3.711,3.711,0,0,0,37.068,0ZM32.182,11.757,26.941,17a.926.926,0,0,1-1.31,0A7.537,7.537,0,0,0,18.6,15.132l-2-4.4a.927.927,0,0,0-1.687.767l1.947,4.283A6.9,6.9,0,0,0,15.145,17a.926.926,0,0,1-1.31,0L8.593,11.757a.926.926,0,0,1,0-1.31,16.679,16.679,0,0,1,23.589,0A.926.926,0,0,1,32.182,11.757Z" fill="#03c4a1"/>
      </g>
    </g>
  </g>
</svg>
